<?xml version="1.0" encoding="UTF-8" standalone="no"?>
<svg
   xmlns:dc="http://purl.org/dc/elements/1.1/"
   xmlns:cc="http://creativecommons.org/ns#"
   xmlns:rdf="http://www.w3.org/1999/02/22-rdf-syntax-ns#"
   xmlns:svg="http://www.w3.org/2000/svg"
   xmlns="http://www.w3.org/2000/svg"
   xmlns:xlink="http://www.w3.org/1999/xlink"
   xmlns:sodipodi="http://sodipodi.sourceforge.net/DTD/sodipodi-0.dtd"
   xmlns:inkscape="http://www.inkscape.org/namespaces/inkscape"
   inkscape:export-ydpi="299.97479"
   inkscape:export-xdpi="299.97479"
   inkscape:export-filename="/home/srevinsaju/repo/saas-static/img/python2.png"
   sodipodi:docname="sugar3.svg"
   inkscape:version="1.0 (4035a4fb49, 2020-05-01)"
   id="svg8"
   version="1.1"
   viewBox="0 0 75 75"
   height="75mm"
   width="75mm">
  <defs
     id="defs2">
    <linearGradient
       id="linearGradient859"
       inkscape:collect="always">
      <stop
         id="stop855"
         offset="0"
         style="stop-color:#0000aa;stop-opacity:1;" />
      <stop
         id="stop857"
         offset="1"
         style="stop-color:#7f00aa;stop-opacity:1" />
    </linearGradient>
    <linearGradient
       gradientTransform="matrix(0.53705167,0,0,0.53705167,-34.116057,-15.44556)"
       gradientUnits="userSpaceOnUse"
       y2="111.45389"
       x2="149.15369"
       y1="111.45389"
       x1="72.415855"
       id="linearGradient861"
       xlink:href="#linearGradient859"
       inkscape:collect="always" />
  </defs>
  <sodipodi:namedview
     inkscape:window-maximized="1"
     inkscape:window-y="0"
     inkscape:window-x="0"
     inkscape:window-height="1054"
     inkscape:window-width="1920"
     showgrid="false"
     inkscape:document-rotation="0"
     inkscape:current-layer="g849"
     inkscape:document-units="mm"
     inkscape:cy="73.226623"
     inkscape:cx="226.38832"
     inkscape:zoom="1.4"
     inkscape:pageshadow="2"
     inkscape:pageopacity="0.0"
     borderopacity="1.0"
     bordercolor="#666666"
     pagecolor="#ffffff"
     id="base" />
  <metadata
     id="metadata5">
    <rdf:RDF>
      <cc:Work
         rdf:about="">
        <dc:format>image/svg+xml</dc:format>
        <dc:type
           rdf:resource="http://purl.org/dc/dcmitype/StillImage" />
        <dc:title></dc:title>
      </cc:Work>
    </rdf:RDF>
  </metadata>
  <g
     id="layer1"
     inkscape:groupmode="layer"
     inkscape:label="Layer 1">
    <g
       id="g849">
      <rect
         ry="5.9966202"
         y="2.1386931"
         x="38.217777"
         height="44.989864"
         width="33.984547"
         id="rect1025"
         style="fill:#ffff00;fill-opacity:1;stroke-width:0.851354;stroke-linecap:round" />
      <path
         inkscape:export-ydpi="299.97479"
         inkscape:export-xdpi="299.97479"
         inkscape:export-filename="/home/srevinsaju/aslo4_small_png.png"
         id="path853"
         d="m 9.6257874,73.089407 c -0.82658,-0.21485 -1.36197,-0.45192 -2.0266412,-0.89736 -1.882011,-1.26128 -2.946893,-3.40921 -2.812839,-5.67367 0.07296,-1.23248 0.419262,-2.24891 1.138091,-3.340418 0.152156,-0.23105 2.3645192,-2.50274 5.2001088,-5.33958 2.714401,-2.7156 4.982191,-4.99612 5.039531,-5.06782 0.0956,-0.11953 -0.31614,-0.55161 -4.944181,-5.1888 -3.2991896,-3.30571 -5.1558628,-5.2196 -5.3584798,-5.52362 -0.38939,-0.58426 -0.684304,-1.23127 -0.894761,-1.963 -0.234244,-0.81445 -0.233278,-2.43151 0.0019,-3.25919 0.711041,-2.50194 2.63042,-4.26275 5.1198508,-4.69687 0.78295,-0.13654 1.365641,-0.136 2.156901,0.002 1.02064,0.17798 1.91248,0.54476 2.71777,1.11771 0.20107,0.14306 2.62007,2.50819 5.37557,5.25585 2.75549,2.74767 5.03697,4.99576 5.06993,4.99576 0.033,0 2.32074,-2.25501 5.08393,-5.01113 2.76319,-2.75613 5.18659,-5.12879 5.38532,-5.2726 1.67875,-1.21476 4.0544,-1.51385 6.0136,-0.7571 1.22887,0.47466 2.31614,1.34652 3.04472,2.44151 0.79425,1.19369 1.10692,2.34564 1.04268,3.84156 -0.0557,1.29732 -0.38114,2.29833 -1.09512,3.3686 -0.12072,0.18095 -2.50899,2.62323 -5.30726,5.42727 l -5.08778,5.09826 5.11603,5.13766 c 5.68419,5.70822 5.55352,5.55609 6.09231,7.092518 0.26259,0.7488 0.26312,0.75285 0.26211,1.99326 -10e-4,1.1657 -0.0138,1.28155 -0.20689,1.86439 -0.5873,1.77266 -1.711,3.09155 -3.29841,3.87137 -1.00029,0.49139 -1.73414,0.66182 -2.84708,0.66117 -1.35533,-5.4e-4 -2.58494,-0.36874 -3.67271,-1.09904 -0.19409,-0.13031 -2.64764,-2.52653 -5.45234,-5.32494 l -5.09944,-5.088018 -5.17303,5.154298 c -5.43726,5.41757 -5.39087,5.37606 -6.57545,5.88394 -1.18408,0.50766 -2.749131,0.62326 -4.0079906,0.29604 z M 23.908568,36.897189 c -3.73735,-0.53769 -7.00143,-3.03766 -8.40793,-6.43965 -0.78444,-1.8974 -1.03983,-3.857175 -0.75372,-5.783998 0.65092,-4.383715 3.89564,-7.899409 8.24222,-8.930534 0.75607,-0.179362 0.94447,-0.194692 2.39264,-0.194692 1.44399,0 1.63799,0.01568 2.3833,0.192587 4.46553,1.059958 7.69849,4.630111 8.29673,9.162056 0.11565,0.8761 0.0453,2.651861 -0.13902,3.509451 -0.29062,1.35215 -0.87002,2.72557 -1.63448,3.87437 -0.52721,0.79225 -1.81444,2.10643 -2.63751,2.6927 -1.23522,0.87986 -2.90056,1.58775 -4.33151,1.84121 -0.92827,0.16443 -2.5472,0.20074 -3.41072,0.0765 z"
         style="fill:#00ffff;fill-opacity:1;stroke-width:0.0731137" />
      <path
         inkscape:export-ydpi="299.97479"
         inkscape:export-xdpi="299.97479"
         inkscape:export-filename="/home/srevinsaju/aslo4_small_png.png"
         id="path851"
         d="m 9.6257874,73.089407 c -0.82657,-0.21485 -1.36197,-0.45192 -2.0266412,-0.89736 -1.882012,-1.26128 -2.946894,-3.40921 -2.812841,-5.67367 0.07296,-1.23248 0.419266,-2.24891 1.138093,-3.340418 0.152158,-0.23105 2.3645192,-2.50274 5.2001088,-5.33958 2.714411,-2.7156 4.982201,-4.99612 5.039531,-5.06782 0.0956,-0.11953 -0.31613,-0.55161 -4.944181,-5.1888 -3.2991996,-3.30571 -5.1558628,-5.2196 -5.3584818,-5.52362 -0.389389,-0.58426 -0.6843,-1.23127 -0.89476,-1.963 -0.23424,-0.81445 -0.233279,-2.43151 0.0021,-3.25919 0.711046,-2.50194 2.63042,-4.26275 5.1198518,-4.69687 0.78295,-0.13654 1.365641,-0.136 2.156901,0.002 1.02064,0.17799 1.91247,0.54477 2.71777,1.11772 0.20106,0.14306 2.62007,2.50819 5.37557,5.25585 2.75549,2.74767 5.03696,4.99576 5.06993,4.99576 0.033,0 2.32073,-2.25501 5.08392,-5.01113 2.7632,-2.75613 5.18659,-5.12879 5.38532,-5.2726 1.67876,-1.21476 4.05441,-1.51385 6.01361,-0.7571 1.22886,0.47465 2.31613,1.34652 3.04471,2.4415 0.79426,1.1937 1.10693,2.34565 1.04268,3.84157 -0.0557,1.29733 -0.38114,2.29833 -1.09512,3.3686 -0.12072,0.18095 -2.50898,2.62323 -5.30726,5.42727 l -5.08777,5.09827 5.11602,5.13765 c 5.6842,5.70822 5.55352,5.55609 6.09232,7.092518 0.26258,0.7488 0.26311,0.75285 0.26211,1.99326 -10e-4,1.1657 -0.0138,1.28155 -0.2069,1.86439 -0.5873,1.77266 -1.71099,3.09155 -3.29841,3.87137 -1.00028,0.49139 -1.73414,0.66182 -2.84707,0.66117 -1.35534,-5.4e-4 -2.58494,-0.36874 -3.67272,-1.09904 -0.19409,-0.13031 -2.64764,-2.52653 -5.45233,-5.32494 l -5.09945,-5.088008 -5.17302,5.154288 c -5.43727,5.41757 -5.39088,5.37606 -6.57545,5.88394 -1.18408,0.50766 -2.749131,0.62326 -4.0079906,0.29604 z m 2.6847406,-3.87917 c 0.33833,-0.16566 1.42154,-1.21585 6.68192,-6.478228 3.45296,-3.45428 6.32775,-6.28051 6.3884,-6.28051 0.0607,0 2.93986,2.82777 6.39822,6.28393 5.12605,5.122778 6.36223,6.321738 6.69005,6.488608 0.36318,0.18488 0.47294,0.20433 1.13327,0.20094 0.67278,-0.003 0.76693,-0.0222 1.17973,-0.23424 1.31603,-0.67612 1.81125,-2.37846 1.0579,-3.63659 -0.0963,-0.16085 -3.00762,-3.129988 -6.46957,-6.598098 l -6.29446,-6.30564 6.37012,-6.37958 c 3.50357,-3.50876 6.40875,-6.45538 6.45598,-6.54803 0.42959,-0.84282 0.37139,-1.99734 -0.13663,-2.7108 -0.21724,-0.30509 -0.76461,-0.77456 -1.07454,-0.92163 -0.35533,-0.16862 -1.03936,-0.25599 -1.50622,-0.19238 -0.83882,0.11428 -0.69302,-0.0172 -7.4258,6.69626 -3.46945,3.45949 -6.32468,6.30476 -6.34496,6.32281 -0.0203,0.018 -2.88999,-2.81628 -6.37712,-6.29852 -7.18763,-7.17753 -6.65465,-6.72082 -7.841171,-6.71893 -0.77882,0.001 -1.2724996,0.1911 -1.8140696,0.69768 -0.83342,0.77956 -1.03196,1.98913 -0.50466,3.07463 0.094,0.19349 2.2846396,2.43783 6.4738106,6.63251 3.48246,3.48702 6.31688,6.35636 6.29872,6.3763 -0.0182,0.0199 -2.86477,2.87527 -6.3258,6.34517 -6.4241506,6.440598 -6.4402406,6.458028 -6.6775406,7.228018 -0.38545,1.25072 0.58148,2.85805 1.8935996,3.14775 0.50439,0.11136 1.336041,0.0215 1.770821,-0.19143 z m 11.59804,-32.313048 c -3.73735,-0.5377 -7.00143,-3.03766 -8.40793,-6.43966 -0.78444,-1.89739 -1.03983,-3.857165 -0.75372,-5.783991 0.65092,-4.383715 3.89565,-7.899409 8.24222,-8.930533 0.75607,-0.179362 0.94447,-0.194692 2.39264,-0.194692 1.44399,0 1.63799,0.01568 2.3833,0.192586 4.46553,1.059959 7.69849,4.630111 8.29673,9.162057 0.11565,0.876099 0.0453,2.651863 -0.13902,3.509453 -0.29062,1.35215 -0.87002,2.72556 -1.63448,3.87437 -0.52721,0.79225 -1.81444,2.10643 -2.63751,2.6927 -1.23522,0.87985 -2.90056,1.58775 -4.33151,1.84121 -0.92827,0.16442 -2.5472,0.20073 -3.41072,0.0765 z m 2.78926,-3.84893 c 1.12568,-0.21598 2.19176,-0.72636 3.13661,-1.50165 0.36591,-0.30025 0.66623,-0.56895 0.66737,-0.59712 0.001,-0.0281 0.12524,-0.18953 0.27576,-0.35857 0.56882,-0.6388 1.10144,-1.70958 1.37456,-2.76342 0.16554,-0.63877 0.18945,-2.505969 0.0393,-3.07077 -0.28144,-1.058738 -0.68297,-1.910151 -1.26249,-2.677036 -1.00074,-1.324283 -2.26639,-2.147662 -4.04833,-2.63367 -0.48464,-0.132181 -2.41787,-0.133034 -2.96111,-0.0013 -2.4273,0.588584 -4.31528,2.263699 -5.08057,4.507761 -0.2979,0.873546 -0.34534,1.175384 -0.35047,2.229968 -0.006,1.264377 0.14758,1.995227 0.63819,3.034217 0.84627,1.79219 2.5813,3.24067 4.47126,3.73281 0.84756,0.22071 2.23415,0.2649 3.09991,0.0988 z"
         style="fill:url(#linearGradient861);fill-opacity:1;stroke-width:0.0731137" />
      <text
         id="text1023"
         y="38.424225"
         x="43.853996"
         style="font-style:normal;font-weight:normal;font-size:42.0365px;line-height:1.25;font-family:sans-serif;fill:#000000;fill-opacity:1;stroke:none;stroke-width:1.05091;"
         xml:space="preserve"><tspan
           style="font-style:normal;font-variant:normal;font-weight:bold;font-stretch:normal;font-family:'Titillium Web';-inkscape-font-specification:'Titillium Web Bold';fill:#000000;fill-opacity:1;stroke-width:1.05091;"
           y="38.424225"
           x="43.853996"
           id="tspan1021"
           sodipodi:role="line">2</tspan></text>
    </g>
  </g>
</svg>
